<?xml version="1.0" standalone="no"?>
<!DOCTYPE svg PUBLIC "-//W3C//DTD SVG 1.1//EN" "http://www.w3.org/Graphics/SVG/1.1/DTD/svg11.dtd">
<svg xmlns="http://www.w3.org/2000/svg" xmlns:xlink="http://www.w3.org/1999/xlink" version="1.1" width="1008" height="274" style="shape-rendering:geometricPrecision; text-rendering:geometricPrecision; image-rendering:optimizeQuality; fill-rule:evenodd; clip-rule:evenodd" viewBox="0 0 1008 274">
<g><path style="opacity:0.986" fill="#ec2023" d="M 154.5,27.5 C 202.79,28.2107 237.29,50.2107 258,93.5C 275.849,144.948 264.016,188.115 222.5,223C 182.667,248.758 142,250.091 100.5,227C 54.307,192.746 40.4737,148.246 59,93.5C 73.65,61.0905 98.15,40.2572 132.5,31C 139.912,29.3933 147.245,28.2266 154.5,27.5 Z M 157.5,87.5 C 158.496,87.4142 159.329,87.7476 160,88.5C 176.454,117.912 193.288,147.078 210.5,176C 175.833,176.667 141.167,176.667 106.5,176C 123.891,146.718 140.891,117.218 157.5,87.5 Z"/></g>
<g><path style="opacity:0.982" fill="#040707" d="M 319.5,32.5 C 356.168,32.3333 392.835,32.5 429.5,33C 472.748,35.9132 495.414,58.9132 497.5,102C 498.633,124.953 490.967,144.286 474.5,160C 464.906,166.867 454.239,171.201 442.5,173C 420.199,174.409 397.865,174.909 375.5,174.5C 375.5,198.167 375.5,221.833 375.5,245.5C 356.833,245.5 338.167,245.5 319.5,245.5C 319.5,174.5 319.5,103.5 319.5,32.5 Z M 375.5,77.5 C 388.837,77.3334 402.171,77.5001 415.5,78C 432.227,79.5596 440.893,88.7263 441.5,105.5C 441.316,119.064 434.65,127.231 421.5,130C 406.17,130.5 390.837,130.667 375.5,130.5C 375.5,112.833 375.5,95.1667 375.5,77.5 Z"/></g>
<g><path style="opacity:0.981" fill="#040707" d="M 510.5,32.5 C 544.502,32.3333 578.502,32.5 612.5,33C 660.863,36.0522 691.03,60.8855 703,107.5C 708.938,137.316 706.271,166.316 695,194.5C 679.343,223.771 654.843,240.271 621.5,244C 584.522,245.426 547.522,245.926 510.5,245.5C 510.5,174.5 510.5,103.5 510.5,32.5 Z M 566.5,81.5 C 633.283,73.4386 659.783,102.105 646,167.5C 639.455,183.367 627.621,192.534 610.5,195C 595.873,196.373 581.207,196.873 566.5,196.5C 566.5,158.167 566.5,119.833 566.5,81.5 Z"/></g>
<g><path style="opacity:0.978" fill="#040707" d="M 698.5,32.5 C 717.179,32.1671 735.845,32.5004 754.5,33.5C 764.547,83.778 774.38,134.111 784,184.5C 794.831,134.348 805.164,84.0149 815,33.5C 832.757,32.5077 850.59,32.1744 868.5,32.5C 878.344,83.8809 888.511,135.214 899,186.5C 908.9,135.167 918.733,83.8335 928.5,32.5C 947.167,32.5 965.833,32.5 984.5,32.5C 965.324,103.538 945.991,174.538 926.5,245.5C 907.821,245.833 889.155,245.5 870.5,244.5C 860.682,197.243 851.182,149.909 842,102.5C 831.859,149.703 822.026,197.037 812.5,244.5C 793.512,245.5 774.512,245.833 755.5,245.5C 736.656,174.456 717.656,103.456 698.5,32.5 Z"/></g>
</svg>